<svg width="25" height="25" viewBox="0 0 25 25" fill="none" xmlns="http://www.w3.org/2000/svg">
<path d="M21.9697 12.5C21.9697 12.8014 21.85 13.0904 21.6369 13.3035C21.4238 13.5166 21.1347 13.6364 20.8333 13.6364H13.6364V20.8333C13.6364 21.1347 13.5166 21.4238 13.3035 21.6369C13.0904 21.85 12.8014 21.9697 12.5 21.9697C12.1986 21.9697 11.9096 21.85 11.6965 21.6369C11.4834 21.4238 11.3636 21.1347 11.3636 20.8333V13.6364H4.16667C3.86528 13.6364 3.57625 13.5166 3.36314 13.3035C3.15003 13.0904 3.0303 12.8014 3.0303 12.5C3.0303 12.1986 3.15003 11.9096 3.36314 11.6965C3.57625 11.4834 3.86528 11.3636 4.16667 11.3636H11.3636V4.16667C11.3636 3.86528 11.4834 3.57625 11.6965 3.36314C11.9096 3.15003 12.1986 3.0303 12.5 3.0303C12.8014 3.0303 13.0904 3.15003 13.3035 3.36314C13.5166 3.57625 13.6364 3.86528 13.6364 4.16667V11.3636H20.8333C21.1347 11.3636 21.4238 11.4834 21.6369 11.6965C21.85 11.9096 21.9697 12.1986 21.9697 12.5Z" fill="white"/>
</svg>
