<svg width="45" height="10" viewBox="0 0 45 10" fill="none" xmlns="http://www.w3.org/2000/svg">
<path d="M0 0H5.96137V1.87577H2.25635V4.48248H5.96137V6.31683H2.25635V9.65447H0V0ZM7.18704 3.00658H9.31822V4.39963C9.42956 3.92092 9.65728 3.55345 10.0007 3.29622C10.3529 3.0293 10.744 2.89634 11.1707 2.89634C11.3937 2.89634 11.5796 2.91505 11.7277 2.95146V4.91008C11.5152 4.88469 11.3013 4.871 11.0871 4.86866C10.5021 4.86866 10.0615 5.05674 9.76389 5.43389C9.46734 5.8017 9.31822 6.35324 9.31822 7.08919V9.65447H7.18805V3.00658H7.18704ZM15.092 9.83386C14.4422 9.83386 13.8754 9.68186 13.3927 9.37853C12.919 9.0752 12.5425 8.64459 12.3063 8.13715C12.0557 7.60431 11.9295 7.00133 11.9295 6.33052C11.9295 5.66841 12.0604 5.07043 12.3202 4.5376C12.5637 4.02281 12.9504 3.58752 13.4345 3.28252C13.9261 2.97919 14.4881 2.82719 15.12 2.82719C15.5933 2.82719 16.0164 2.92874 16.3875 3.13085C16.7586 3.33363 17.0373 3.60957 17.2232 3.95833V3.00658H19.3402V9.65447H17.2232V8.71641C17.0373 9.04747 16.7495 9.3184 16.3595 9.5302C15.9695 9.73498 15.5336 9.83921 15.092 9.83386ZM15.705 8.08203C16.2155 8.08203 16.6102 7.91666 16.8889 7.58561C17.1675 7.25455 17.3069 6.83596 17.3069 6.33052C17.3069 5.83411 17.1675 5.4202 16.8889 5.08914C16.6102 4.75808 16.2155 4.59272 15.705 4.59272C15.2216 4.59272 14.8322 4.75341 14.535 5.07544C14.2472 5.39748 14.1032 5.8154 14.1032 6.33052C14.1032 6.84565 14.2472 7.26824 14.535 7.5993C14.8322 7.92134 15.2222 8.08203 15.705 8.08203ZM20.8307 3.00658H22.9619V3.97203C23.111 3.63128 23.3519 3.35535 23.6859 3.14455C24.03 2.93376 24.4291 2.82719 24.8839 2.82719C25.9426 2.82719 26.644 3.23608 26.9871 4.05488C27.176 3.68373 27.4716 3.37673 27.8369 3.17228C28.2276 2.93943 28.6763 2.82017 29.1321 2.82719C30.7201 2.82719 31.5139 3.72783 31.5139 5.53044V9.65447H29.3689V5.91662C29.3689 5.46663 29.2853 5.13558 29.1183 4.92378C28.9509 4.71265 28.7003 4.60642 28.3659 4.60642C28.0039 4.60642 27.7253 4.73069 27.5303 4.9789C27.3353 5.21809 27.2378 5.636 27.2378 6.23398V9.65447H25.0927V5.90292C25.0927 5.4526 25.0094 5.12589 24.8421 4.92378C24.6849 4.71265 24.4382 4.60642 24.1046 4.60642C23.7328 4.60642 23.4494 4.73069 23.2544 4.9789C23.0594 5.21809 22.9619 5.636 22.9619 6.23398V9.65447H20.8314V3.00658H20.8307ZM39.5198 5.98577C39.5198 6.27039 39.5009 6.57873 39.4631 6.90979H34.5054C34.5243 7.34207 34.6724 7.67246 34.9511 7.90297C35.2298 8.13247 35.6066 8.24772 36.0793 8.24772C36.7388 8.24772 37.1568 8.04962 37.3329 7.65442H39.4223C39.3197 8.30752 38.9577 8.83568 38.3356 9.24056C37.7229 9.63576 36.9706 9.83386 36.0793 9.83386C34.9282 9.83386 34.0226 9.52552 33.3631 8.9095C32.7133 8.29315 32.3881 7.43394 32.3881 6.33052C32.3881 5.61329 32.5365 4.9926 32.8337 4.46845C33.1208 3.94497 33.5635 3.52138 34.1012 3.25479C34.6495 2.97017 35.2854 2.82719 36.0104 2.82719C36.697 2.82719 37.3049 2.96048 37.8343 3.2274C38.3727 3.49432 38.7863 3.86646 39.0738 4.34451C39.3713 4.82322 39.5198 5.37009 39.5198 5.98577ZM37.4156 5.59959C37.4065 5.15829 37.2813 4.82222 37.0394 4.59272C36.7985 4.36322 36.4497 4.24797 35.9949 4.24797C35.5401 4.24797 35.1781 4.3719 34.9086 4.62045C34.6488 4.85964 34.5142 5.18569 34.5044 5.59959H37.4156ZM40.4594 3.00658H42.5906V4.39963C42.7019 3.92092 42.9296 3.55345 43.2731 3.29622C43.6064 3.03631 44.0186 2.89534 44.4431 2.89634C44.6657 2.89634 44.852 2.91505 45.0001 2.95146V4.91008C44.7875 4.88469 44.5736 4.871 44.3594 4.86866C43.7744 4.86866 43.3338 5.05674 43.0362 5.43389C42.7387 5.8017 42.5906 6.35324 42.5906 7.08919V9.65447H40.4594V3.00658Z" fill="white"/>
</svg>
