<svg width="16" height="16" viewBox="0 0 16 16" fill="none" xmlns="http://www.w3.org/2000/svg">
<path d="M12.8245 8.42439L9.2245 12.0244C9.11178 12.1371 8.95891 12.2004 8.7995 12.2004C8.64009 12.2004 8.48722 12.1371 8.3745 12.0244C8.26178 11.9117 8.19846 11.7588 8.19846 11.5994C8.19846 11.44 8.26178 11.2871 8.3745 11.1744L10.95 8.59989H3.6C3.44087 8.59989 3.28826 8.53668 3.17574 8.42416C3.06321 8.31163 3 8.15902 3 7.99989C3 7.84076 3.06321 7.68815 3.17574 7.57563C3.28826 7.46311 3.44087 7.39989 3.6 7.39989H10.95L8.3755 4.82389C8.26278 4.71118 8.19946 4.5583 8.19946 4.39889C8.19946 4.23949 8.26278 4.08661 8.3755 3.97389C8.48822 3.86118 8.64109 3.79785 8.8005 3.79785C8.95991 3.79785 9.11278 3.86118 9.2255 3.97389L12.8255 7.57389C12.8814 7.62971 12.9258 7.69603 12.9561 7.76904C12.9863 7.84205 13.0018 7.92032 13.0017 7.99935C13.0016 8.07838 12.9859 8.15661 12.9555 8.22955C12.9251 8.30249 12.8806 8.36871 12.8245 8.42439Z" fill="white"/>
</svg>
